<?xml version="1.0" standalone="no"?>
<!DOCTYPE svg PUBLIC "-//W3C//DTD SVG 20010904//EN"
 "http://www.w3.org/TR/2001/REC-SVG-20010904/DTD/svg10.dtd">
<svg version="1.0" xmlns="http://www.w3.org/2000/svg"
 width="512.000000pt" height="512.000000pt" viewBox="0 0 512.000000 512.000000"
 preserveAspectRatio="xMidYMid meet">
<metadata>
Created by potrace 1.14, written by Peter Selinger 2001-2017
</metadata>
<g transform="translate(0.000000,512.000000) scale(0.100000,-0.100000)"
fill="#000000" stroke="none">
<path d="M1545 4140 c-131 -21 -241 -68 -311 -132 l-44 -41 2 -1381 c3 -1347
3 -1382 23 -1436 29 -82 86 -133 177 -162 63 -20 94 -23 228 -22 135 0 272 13
334 31 19 5 19 23 12 800 -6 717 -14 1020 -32 1214 -5 60 -4 67 14 71 17 5 24
-5 48 -66 74 -190 215 -479 545 -1117 222 -428 377 -717 405 -751 109 -137
281 -195 554 -185 168 6 231 20 350 79 l85 43 0 1415 0 1415 -23 56 c-23 58
-68 111 -113 135 -89 46 -332 58 -529 26 l-105 -17 -3 -725 c-3 -651 6 -1118
25 -1309 5 -50 3 -63 -7 -59 -7 2 -49 89 -94 194 -45 104 -117 259 -160 344
-173 344 -651 1260 -692 1326 -51 84 -137 167 -199 195 -121 54 -348 81 -490
59z"/>
</g>
</svg>
